<?xml version="1.0" standalone="no"?><!DOCTYPE svg PUBLIC "-//W3C//DTD SVG 1.1//EN" "http://www.w3.org/Graphics/SVG/1.1/DTD/svg11.dtd"><svg class="icon" width="200px" height="190.33px" viewBox="0 0 1076 1024" version="1.1" xmlns="http://www.w3.org/2000/svg"><path fill="#2c2c2c" d="M931.328 470.016c66.048-67.072 86.016-166.912 50.176-253.952l-122.88 122.88c-35.84 33.792-91.648 31.744-125.44-4.096-32.256-34.304-32.256-87.04 0-121.344l122.88-122.88c-87.04-35.328-186.88-15.872-254.464 49.664-66.56 66.56-86.016 166.912-49.664 253.44L466.944 478.72l-215.04-215.04 14.848-30.72L150.528 153.6 77.312 227.328l76.8 114.688 34.816-17.408 216.576 215.04-251.392 251.392c-15.872 15.872-16.384 41.472-0.512 57.344l0.512 0.512 76.8 77.312c15.872 15.872 41.984 15.872 57.856 0l251.392-250.88 35.84 35.84-9.728 9.728c-13.824 9.728-17.408 28.672-7.68 43.008 1.024 1.536 2.048 3.072 3.584 4.096l170.496 169.984c14.336 14.848 37.888 16.384 54.272 3.072l79.36-79.36c14.336-16.384 14.336-40.448 0-56.32l-170.496-169.984c-13.824-14.336-34.816-8.192-49.664 6.656l-7.168 7.168-35.84-35.328 89.088-89.6c83.456 28.672 176.128 7.68 239.104-54.272z" /></svg>