<?xml version="1.0" standalone="no"?><!DOCTYPE svg PUBLIC "-//W3C//DTD SVG 1.1//EN" "http://www.w3.org/Graphics/SVG/1.1/DTD/svg11.dtd"><svg class="icon" width="200px" height="200.00px" viewBox="0 0 1024 1024" version="1.1" xmlns="http://www.w3.org/2000/svg"><path fill="#007aff" d="M475.34613 1013.667059l0 0.550281L47.42481 1014.21734c-23.135065 0-41.870917-18.735852-41.870917-41.871929L5.553892 554.764112c0-23.12495 18.735852-41.870917 41.870917-41.870917l146.390915 0c-3.800378-6.637764-9.964738-15.722457-15.926789-24.390393-12.252855-17.819392-21.392172-38.420534-21.392172-61.729585 0-55.070579 44.641541-99.713132 99.714143-99.706051 0.475427 0 0.946807 0 1.412118 0.009104 53.764673 0.743486 97.626313 44.664807 98.304049 98.420376 0.299418 23.839101-8.986573 44.897462-21.452864 63.092138-6.44557 9.412434-12.058638 17.674741-15.866097 24.303401l156.874576 0-0.135547 130.966864c-17.044548-7.827342-35.724765-11.971645-54.712492-11.971645-0.552304 0-1.111689 0-1.673097 0.011127-34.237792 0.432942-66.511163 14.067568-90.892452 38.418511-24.380278 24.341839-38.065482 56.60914-38.537874 90.835806-0.492623 35.386908 12.91036 68.745667 37.744822 93.917986 12.05965 12.225543 26.149472 21.829159 41.880021 28.554928 16.3132 6.967528 33.630865 10.503892 51.487684 10.503892 18.979635 0 37.65884-4.154419 54.714515-11.972657L475.358269 1013.667059 475.34613 1013.667059zM1008.068659 971.806257c0 23.114834-18.747991 41.860802-41.873952 41.860802L538.273386 1013.667059l-15.703238 0-15.701215 0-0.125432 0L506.743502 826.140621l0-0.735394c-5.547317 3.169173-14.197046 9.595524-25.270438 16.60149-17.963031 11.374833-37.927912 20.718482-60.839425 20.718482-37.184425 0-69.616608-20.351291-86.757253-50.519634-8.465627-14.90007-13.210789-32.1884-12.950821-50.616743 0.745509-53.766696 44.655703-97.61822 98.423411-98.296968 0.432942-0.009104 0.858802-0.009104 1.284663-0.009104 22.911513 0 43.347774 8.648717 60.850552 20.718482 9.449861 6.512332 19.711994 13.432317 25.269427 16.600479l-0.020231-157.163878 15.836762 0 15.703238 0 100.112693 0c-8.059997 17.55032-12.203289 36.798015-11.953437 56.384577 0.424849 34.236781 14.069591 66.512174 38.413454 90.893464 24.350943 24.382301 56.608129 38.06447 90.844909 38.538885 0.617043 0.008092 1.236109 0.008092 1.855175 0.008092 35.019717 0 67.952615-13.634626 92.7102-38.401315 24.757585-24.757585 38.401315-57.679356 38.401315-92.7102 0-18.987727-4.154419-37.665921-11.972657-54.713503l131.384632 0L1008.06967 971.806257 1008.068659 971.806257zM1008.193079 494.225116M538.398818 17.072871l0-0.551292L966.32115 16.521578c23.135065 0 41.87294 18.737875 41.87294 41.871929l0 417.583322c0 23.12495-18.736864 41.869906-41.87294 41.869906L819.930235 517.846735c3.800378 6.637764 9.963727 15.721446 15.926789 24.390393 12.252855 17.81838 21.39116 38.420534 21.39116 61.728574 0 55.071591-44.641541 99.711109-99.713132 99.706051-0.475427 0-0.946807 0-1.41313-0.010115-53.763662-0.742475-97.625301-44.662784-98.303037-98.420376-0.300429-23.840113 8.987585-44.896451 21.452864-63.092138 6.444559-9.412434 12.060661-17.674741 15.86812-24.303401L538.264282 517.845723l0.135547-130.965852c17.044548 7.82633 35.725776 11.972657 54.715526 11.972657 0.549269 0 1.111689 0 1.671074-0.010115 34.237792-0.434965 66.510151-14.070603 90.893464-38.422557 24.377243-24.341839 38.062447-56.608129 38.537874-90.835806 0.4906-35.386908-12.911371-68.744656-37.746845-93.917986-12.05965-12.224532-26.147449-21.830171-41.880021-28.554928-16.312188-6.967528-33.62783-10.503892-51.485661-10.503892-18.978623 0-37.659852 4.154419-54.714515 11.971645L538.390725 17.072871 538.398818 17.072871zM5.679324 58.933673c0-23.114834 18.746979-41.860802 41.870917-41.860802l427.920309 0 15.702226 0L506.877026 17.072871l0.125432 0 0 187.526438 0 0.735394c5.547317-3.170185 14.197046-9.596535 25.269427-16.602502 17.965054-11.373822 37.929935-20.717471 60.841448-20.717471 37.184425 0 69.613574 20.351291 86.758264 50.519634 8.463604 14.901082 13.208766 32.1884 12.946775 50.616743-0.741463 53.766696-44.65368 97.619232-98.422399 98.296968-0.432942 0.009104-0.857791 0.009104-1.28264 0.009104-22.911513 0-43.350809-8.649729-60.853587-20.719494-9.447838-6.513344-19.709971-13.432317-25.267404-16.60149l0.020231 157.16489-15.839796 0-15.702226 0-100.111681 0c8.058986-17.547286 12.205312-36.797003 11.953437-56.384577-0.423838-34.237792-14.069591-66.512174-38.41143-90.894475-24.351955-24.38129-56.607117-38.063459-90.845921-38.537874-0.618055-0.009104-1.237121-0.009104-1.855175-0.009104-35.019717 0-67.952615 13.634626-92.709188 38.401315-24.756573 24.758596-38.401315 57.681379-38.401315 92.712223 0 18.987727 4.154419 37.665921 11.972657 54.712492L5.679324 487.301085 5.679324 58.933673 5.679324 58.933673z" /></svg>