<?xml version="1.0" standalone="no"?><!DOCTYPE svg PUBLIC "-//W3C//DTD SVG 1.1//EN" "http://www.w3.org/Graphics/SVG/1.1/DTD/svg11.dtd"><svg class="icon" width="200px" height="200.00px" viewBox="0 0 1024 1024" version="1.1" xmlns="http://www.w3.org/2000/svg"><path fill="#007aff" d="M807.19206838 560.99446153L611.70434188 365.50673504s-7.28177777-3.92095726-12.32300855 0c-26.32642735 26.8865641-47.61162393 48.17176069-64.97586325 63.29545298-17.36423931 15.12369231-41.45011966 24.6460171-61.61504273 26.88656411-20.16492308 1.68041026-47.61162393 5.60136752-76.17859829-24.64601709-2.24054701-2.24054701-3.36082051-5.60136752-3.36082052-8.96218804s1.12027351-6.16150428 3.36082052-8.40205128l131.63213676-131.072c-11.20273505-10.64259829-18.48451282-17.92437607-21.84533334-20.72505983-31.36765812-27.44670085-68.89682051-45.37107692-98.58406838-60.49476923l-5.60136752-2.80068376c-4.48109402-2.80068376-9.52232479-5.04123077-14.56355555-7.28177778l-5.04123077-2.240547-0.56013675-0.56013676c-16.24396582-8.40205128-39.20957265-20.16492308-61.05490599-20.16492308-15.68382906 0-29.12711111 6.16150428-41.45011965 17.92437607L97.49880342 369.4276923c-33.60820513 33.60820513-31.92779487 61.61504274-30.24738462 77.85900854 0.56013675 2.80068376 0.56013675 5.04123077 0.56013676 6.16150428 1.12027351 13.44328205 14.0034188 30.80752136 35.28861538 56.01367521 3.92095726 4.48109402 8.40205128 9.52232479 11.7628718 14.00341881 12.32300854 15.12369231 21.28519658 30.24738462 30.24738461 44.81094017l3.92095727 6.72164102c15.12369231 24.6460171 32.48793162 53.21299146 67.776547 87.94147009L444.78358974 892.03528204c15.68382906 15.68382906 36.40888889 26.32642735 57.69408547 29.12711111 2.80068376 0.56013675 6.72164103 0.56013675 10.08246154 0.56013676 17.36423931 0 33.04806838-6.16150428 43.69066667-17.36423932l5.04123076-5.04123077c20.16492308-20.16492308-7.84191453-49.85217094-7.84191452-49.85217093l-92.98270086-92.98270087c-2.24054701-2.24054701-3.92095726-5.60136752-3.92095726-8.96218803s1.12027351-6.72164103 3.92095726-8.96218803c2.24054701-2.24054701 5.60136752-3.92095726 8.96218804-3.92095727s6.72164103 1.12027351 8.96218803 3.92095727l92.98270085 92.98270085s33.60820513 29.68724787 59.93463249 12.88314531c5.60136752-5.04123077 11.20273505-10.08246154 17.36423931-15.68382907 21.28519658-24.08588034-3.92095726-54.89340171-3.92095726-54.8934017l-100.82461539-100.82461539c-2.24054701-2.24054701-3.92095726-5.60136752-3.92095726-8.96218804s1.12027351-6.72164103 3.92095726-8.96218803c2.24054701-2.24054701 5.60136752-3.92095726 8.96218803-3.92095726s6.72164103 1.12027351 8.96218804 3.92095726l106.42598291 105.86584615s25.76629059 27.44670085 49.85217094 15.12369231l6.72164103-5.60136752 20.16492307-17.92437607s1.12027351-1.68041026 2.24054701-2.80068376c20.16492308-26.8865641-3.36082051-56.01367521-3.36082052-56.01367521L632.98953846 582.83979487c-2.24054701-2.24054701-3.92095726-5.60136752-3.92095726-8.96218804s1.12027351-6.72164103 3.92095726-8.96218804c2.24054701-2.24054701 5.60136752-3.92095726 8.96218803-3.92095726s6.72164103 1.12027351 8.96218804 3.92095726l88.50160683 88.50160684s34.16834188 32.48793162 71.13736753 8.96218804c8.96218803-8.96218803 16.24396582-16.24396582 19.04464957-30.80752137 6.72164103-26.8865641-2.80068376-50.97244444-22.40547008-70.57723077z"  /><path fill="#007aff" d="M930.98229059 370.54796581l-210.05128205-210.05128205c-47.61162393-47.61162393-99.70434188-52.09271795-138.91391452-12.88314531l-81.21982907 81.21982906-143.95514529 143.9551453c-11.20273505 10.64259829-11.20273505 28.56697436-0.56013676 39.76970941 34.72847864 30.80752136 77.29887179 41.45011966 77.2988718 41.45011965-11.76287179-3.36082051-24.08588034-10.08246154-36.40888888-22.96560683-2.24054701-2.24054701-3.36082051-5.60136752-3.36082052-8.96218804s1.12027351-6.16150428 3.36082052-8.40205128l22.40547008-22.40547009 120.98953846-120.98953846 82.34010256-82.34010256c10.08246154-10.08246154 17.36423931-10.08246154 22.40547009-9.52232479 6.72164103 1.12027351 18.48451282 5.60136752 35.28861538 22.40547009l210.05128205 210.05128205c19.60478633 19.60478633 37.52916239 47.61162393 14.56355556 70.57723077L862.08547008 524.58557264a28.39849572 28.39849572 0 0 0 0 40.32984615c5.60136752 5.60136752 12.8831453 8.40205128 20.16492308 8.40205129s14.56355556-2.80068376 20.16492308-8.40205129l43.13052991-43.1305299c42.01025641-42.01025641 36.40888889-100.26447864-14.56355556-151.23692308z"  /></svg>