<?xml version="1.0" standalone="no"?><!DOCTYPE svg PUBLIC "-//W3C//DTD SVG 1.1//EN" "http://www.w3.org/Graphics/SVG/1.1/DTD/svg11.dtd"><svg class="icon" width="200px" height="200.00px" viewBox="0 0 1024 1024" version="1.1" xmlns="http://www.w3.org/2000/svg"><path fill="#007aff" d="M938.687488 721.263616c-9.404416-8.430592-21.655552-12.867584-34.208768-12.3904-27.743232 2.105344-54.409216 11.759616-77.17888 27.942912-82.52416 52.23424-128.07168 78.710784-177.096704 78.906368a230.92224 230.92224 0 0 1-87.099392-20.933632c-48.091136-18.520064-78.659584-32.0512-97.503232-42.223616a89.229312 89.229312 0 0 1-20.13184-13.694976l-10.790912-11.118592 12.82048-18.520064 6.023168-1.85856a57.114624 57.114624 0 0 1 21.420032-3.163136 418.267136 418.267136 0 0 1 101.72416 22.987776c16.104448 4.988928 31.469568 9.618432 43.70944 12.58496a105.14432 105.14432 0 0 0 24.706048 2.934784c38.58944 0 68.063232-23.671808 68.417536-55.527424 0.354304-31.85664-29.08672-55.560192-75.18208-67.037184a2036.649984 2036.649984 0 0 1-65.324032-17.412096 468.886528 468.886528 0 0 0-130.61632-23.90016c-17.6384 0.12288-35.24608 1.4848-52.698112 4.07552-75.53536 11.3152-182.960128 68.34176-300.755968 160.38912a47.38048 47.38048 0 0 1-8.6016 6.096896l-7.504896 4.825088c-3.478528 55.561216 74.826752 174.637056 126.429184 190.386176a70.35392 70.35392 0 0 0 7.312384-3.35872l2.738176-1.108992a428.930048 428.930048 0 0 1 43.904-12.032 491.148288 491.148288 0 0 1 103.72096-12.06272c33.337344 2.1504 66.128896 9.357312 97.34144 21.323776 49.347584 18.16064 101.208064 28.366848 153.648128 30.19264 102.463488 0 176.034816-55.560192 235.14112-99.838976a588.802048 588.802048 0 0 1 52.5056-37.00736c34.916352-21.129216 54.858752-50.212864 54.858752-79.460352 0.14336-11.17184-4.069376-21.951488-11.727872-29.997056z m-473.828352 30.746624a89.23136 89.23136 0 0 1-20.099072-13.693952l-10.790912-11.118592 12.787712-18.520064 6.055936-1.85856a56.853504 56.853504 0 0 1 21.388288-3.163136 418.267136 418.267136 0 0 1 101.723136 22.986752c16.105472 4.988928 31.470592 9.619456 43.710464 12.585984a105.347072 105.347072 0 0 0 24.706048 2.934784c38.58944 0 68.062208-23.671808 68.420608-55.527424 0.382976-31.85664-29.090816-55.560192-75.185152-67.037184a2036.680704 2036.680704 0 0 1-65.324032-17.412096 468.886528 468.886528 0 0 0-130.617344-23.90016c-17.637376 0.12288-35.24608 1.4848-52.697088 4.07552-51.53792 10.010624-101.014528 28.791808-146.335744 55.560192 68.329472 99.320832 180.287488 158.584832 299.854848 158.72512 8.953856 0 18.295808 0 26.702848-1.303552l-7.50592-2.771968c-47.382528-17.80224-77.950976-30.19264-96.761856-40.56064h-0.032768z m-23.030784-209.654784a360.310784 360.310784 0 0 1 77.017088 9.097216v-53.702656H430.4896c-13.34272 0-24.158208-10.947584-24.158208-24.45312 0-13.50656 10.816512-24.455168 24.158208-24.455168h88.549376v-43.496448h-88.58112c-13.34272 0-24.158208-10.948608-24.158208-24.45312 0-13.50656 10.815488-24.455168 24.158208-24.455168h42.647552l-42.80832-89.437184a24.52992 24.52992 0 0 1-1.150976-18.802688c2.134016-6.168576 6.637568-11.204608 12.488704-13.96736 12.128256-5.855232 26.652672-0.736256 32.566272 11.478016l53.051392 111.120384h25.801728L606.1056 245.7088c6.05184-12.169216 20.570112-17.255424 32.758784-11.476992 5.815296 2.803712 10.283008 7.840768 12.41088 13.993984a24.728576 24.728576 0 0 1-1.072128 18.77504l-43.001856 89.437184h48.864256c13.34272 0 24.158208 10.948608 24.158208 24.454144 0 13.50656-10.815488 24.454144-24.158208 24.454144h-88.387584v43.496448h88.387584c13.34272 0 24.158208 10.948608 24.158208 24.454144 0 13.50656-10.815488 24.454144-24.158208 24.454144h-88.387584v61.853696a19.851264 19.851264 0 0 1 0 3.912704l15.010816 4.042752c18.295808 5.184512 39.876608 10.923008 64.228352 17.052672 63.13472 15.162368 102.818816 55.528448 103.17312 102.936576-0.289792 25.106432-11.27424 48.909312-30.1824 65.212416 177.291264-98.144256 242.42176-323.221504 145.466368-502.683648C768.41984 70.61504 546.096128 4.685824 368.77312 102.829056c-177.29024 98.143232-242.42176 323.188736-145.466368 502.683648l1.54624 2.803712c49.16224-29.466624 102.916096-50.260992 158.962688-61.494272a411.805696 411.805696 0 0 1 57.980928-4.43392l0.031744-0.032768z"  /></svg>