<?xml version="1.0" standalone="no"?><!DOCTYPE svg PUBLIC "-//W3C//DTD SVG 1.1//EN" "http://www.w3.org/Graphics/SVG/1.1/DTD/svg11.dtd"><svg class="icon" width="200px" height="200.00px" viewBox="0 0 1024 1024" version="1.1" xmlns="http://www.w3.org/2000/svg"><path fill="#007aff" d="M401.7 274.5c23.1-23.2 23.1-60.7 0-83.8l-42-41.8c-23.2-23.2-60.6-23.1-83.8 0.1L81.3 344.2c-23.1 23.1-23.1 60.6 0 83.8l42 41.8c23.1 23.2 60.7 23.2 83.7 0l194.7-195.3zM808.4 597.4c-4.8 4.8-11.2 7.4-17.8 7.4s-13.1-2.6-17.8-7.4l-69-68.7-0.6-0.7-39.3-39.3-60-59.9c-34.1-10.6-77.7-21.2-104.3-21.2-8.1-0.1-12 1-13.2 1.5L431.5 464c-12.7 12.7-29.6 19.7-47.7 19.7-17.9 0-34.8-7-47.5-19.6L318.7 447c-11.2-11.2-17.6-25.2-19.3-39.7L222.1 485c-20.8 20.8-22.8 53.2-6.1 76.4l43-43c12.2-12.2 28.6-19 45.9-19s33.4 6.7 45.6 18.7l5.7 5.3c13.3 13.3 19.5 31 18.9 48.5 0.8 0 1.5-0.1 2.4-0.1 17.2 0 33.4 6.7 45.6 18.7l5.7 5.3c13.3 13.3 19.5 31 18.9 48.5 0.8 0 1.5-0.1 2.4-0.1 17.2 0 33.4 6.7 45.5 18.7l5.7 5.3c13.3 13.3 19.6 31 18.9 48.5 0.7 0 1.5-0.1 2.3-0.1 17.2 0 33.4 6.7 45.6 18.7l5.6 5.3c14.5 14.5 20.7 34.2 18.5 53.1l14.6 14.6c15.6 15.6 40.6 15.6 56.2 0l5.1-5.3c15.6-15.6 15.6-40.8 0-56.3L619 697.6l10.9-11.1 49.3 49.3c15.6 15.6 40.8 15.6 56.2 0l5-5.3c15.6-15.6 15.6-40.8 0-56.3L691.2 625l10.9-11.1 49.4 49.4c15.6 15.6 40.8 15.6 56.2 0l5-5.3c15.6-15.6 15.6-40.8 0-56.3l-4.3-4.3zM336.2 428.8l17.7 17.4c16.4 16.4 43.1 16.4 59.7 0l56-55.9c22.1-22.1 122.8 8.2 148 16.2l104.1 104.1 69 69 11.5-11.5c23.2-23.2 23.1-60.6-0.1-83.8l-192.6-192s-18.2-22.2-39.7-22.2c-9.7 0-66.4 0.1-110.8 0.1-21.5 0-28.6 4.8-35.5 11.6l-87.3 87.5c-16.4 16.4-16.4 43.1 0 59.5zM942.6 343.6L747.4 149c-23.2-23.2-60.6-23.2-83.8 0l-41.8 42.1c-23.1 23.1-23.2 60.6 0 83.7L817 469.4c23.2 23.1 60.7 23.1 83.8 0l41.8-42c23.2-23.2 23.1-60.7 0-83.8zM338.3 597.3c15.6-15.6 15.4-40.8 0-56.3l-5.3-5a39.594 39.594 0 0 0-56.2 0L211 601.8c-15.6 15.6-15.6 40.8 0 56.2l5.3 5c15.6 15.6 40.8 15.6 56.3 0l65.7-65.7zM410.9 669.7c15.6-15.6 15.4-40.8 0-56.3l-5.4-4.9a39.594 39.594 0 0 0-56.2 0l-65.8 65.8a39.594 39.594 0 0 0 0 56.2l5.3 5c15.6 15.6 40.8 15.6 56.3 0l65.8-65.8zM483.1 742.2c15.6-15.6 15.4-40.8 0-56.3l-5.3-5c-15.5-15.5-40.6-15.5-56.1 0.1l-66 65.8c-15.6 15.6-15.6 40.8 0 56.2l5.3 5c15.6 15.6 40.8 15.6 56.3 0l65.8-65.8zM555.6 758.2l-5.3-5c-15.5-15.3-40.7-15.4-56.3 0.1l-65.8 65.8c-15.6 15.6-15.6 40.8 0 56.2l5.3 5c15.6 15.4 40.8 15.6 56.3 0l65.8-65.8c15.6-15.6 15.6-40.8 0-56.3zM587.6 811.3c-3.1 7.6-7.9 14.9-14.2 21.2l-43.7 43.7 4.5 4.5c15.6 15.6 40.8 15.6 56.2 0l5-5.3c15.6-15.6 15.6-40.8 0-56.3l-7.8-7.8z" /></svg>