<?xml version="1.0" standalone="no"?><!DOCTYPE svg PUBLIC "-//W3C//DTD SVG 1.1//EN" "http://www.w3.org/Graphics/SVG/1.1/DTD/svg11.dtd"><svg class="icon" width="200px" height="200.00px" viewBox="0 0 1024 1024" version="1.1" xmlns="http://www.w3.org/2000/svg"><path fill="#007aff" d="M419.2 696c-12.8-12.8-12.8-32 0-44.8s32-12.8 44.8 0l174.4 174.4 40-40-134.4-136c-12.8-12.8-12.8-32 0-44.8s32-12.8 44.8 0l136 136 40-40L656 592c-12.8-12.8-12.8-32 0-44.8s32-12.8 44.8 0l108.8 108.8 38.4-38.4-188.8-192h-1.6L587.2 496c-25.6 25.6-67.2 25.6-92.8 0l-107.2-105.6c-25.6-25.6-25.6-67.2 0-92.8l121.6-121.6 1.6-1.6-59.2-59.2c-36.8-36.8-97.6-36.8-136 0l-252.8 256c-35.2 35.2-35.2 92.8 0 129.6l382.4 382.4c36.8 36.8 97.6 36.8 136 0l12.8-12.8-174.4-174.4zM960 368L752 160c-36.8-36.8-97.6-36.8-136 0l-60.8 60.8-1.6 1.6-121.6 121.6v1.6l107.2 105.6h1.6l70.4-70.4c25.6-25.6 67.2-25.6 92.8 0l190.4 188.8 4.8-4.8 60.8-60.8c38.4-36.8 38.4-97.6 0-136z" /></svg>