<?xml version="1.0" standalone="no"?><!DOCTYPE svg PUBLIC "-//W3C//DTD SVG 1.1//EN" "http://www.w3.org/Graphics/SVG/1.1/DTD/svg11.dtd"><svg class="icon" width="200px" height="183.68px" viewBox="0 0 1115 1024" version="1.1" xmlns="http://www.w3.org/2000/svg"><path fill="#007aff" d="M599.567309 63.166764a323.545886 323.545886 0 0 1 193.860139-60.341754 315.635501 315.635501 0 0 1 132.404246 32.956224 357.348855 357.348855 0 0 1 113.954109 77.098399 336.135653 336.135653 0 0 1 73.176631 249.700771c-8.91311 94.969185-40.220408 169.349086-94.412116 221.780455L594.531402 1008.357492a53.902032 53.902032 0 0 1-39.663338 15.597942 53.478659 53.478659 0 0 1-54.748777-54.748776 53.902032 53.902032 0 0 1 15.597942-39.663339l256.452452-256.363321a23.463762 23.463762 0 0 0 0-39.106269 23.486044 23.486044 0 0 0-39.106269 0L476.677808 890.481615a55.038453 55.038453 0 0 1-94.412115-39.106269 53.879749 53.879749 0 0 1 15.597942-39.663339l256.452451-256.407886a25.045839 25.045839 0 0 0 0-41.891616 23.486044 23.486044 0 0 0-39.106269 0L358.801931 772.628021a54.77106 54.77106 0 0 1-39.663339 15.597942 58.336304 58.336304 0 0 1-40.777477-15.597942 51.56234 51.56234 0 0 1-16.756646-39.106269 57.756952 57.756952 0 0 1 18.427854-41.891616L536.997279 434.642897a23.463762 23.463762 0 0 0 0-39.106269 25.93715 25.93715 0 0 0-39.663339 0L238.140707 653.080936a57.935214 57.935214 0 0 1-39.217683 17.380564 49.378628 49.378628 0 0 1-39.106269-17.313716 56.575964 56.575964 0 0 1-16.199577-40.220408 53.099852 53.099852 0 0 1 16.199577-39.106269c171.042577-172.134433 276.640645-276.039011 316.861053-314.565928l198.873763 196.645485a113.64215 113.64215 0 0 0 170.374093-15.597942 101.252927 101.252927 0 0 0 16.756647-75.961978 128.059105 128.059105 0 0 0-35.184501-70.948354L599.567309 63.166764m115.068248 353.605348L476.677808 178.235011l-395.519247 395.519247C34.231038 526.269666 7.42486 453.650104 1.274814 354.781433A352.067837 352.067837 0 0 1 81.158561 99.487686 326.754605 326.754605 0 0 1 319.138592 0.061946a317.328992 317.328992 0 0 1 235.729472 99.42574l238.425687 238.425687a52.631913 52.631913 0 0 1 15.597942 39.106269 53.902032 53.902032 0 0 1-15.597942 39.663339 55.706936 55.706936 0 0 1-40.220408 15.597942 54.503666 54.503666 0 0 1-38.437786-15.508811z" /></svg>