<?xml version="1.0" standalone="no"?><!DOCTYPE svg PUBLIC "-//W3C//DTD SVG 1.1//EN" "http://www.w3.org/Graphics/SVG/1.1/DTD/svg11.dtd"><svg class="icon" width="200px" height="200.00px" viewBox="0 0 1024 1024" version="1.1" xmlns="http://www.w3.org/2000/svg"><path d="M0 512a512 512 0 1 0 1024 0A512 512 0 1 0 0 512z" fill="#7298FF" /><path d="M794.893 824.832l-45.514-45.514a120.616 120.616 0 1 0-46.08 38.292l49.449 49.449a29.83 29.83 0 0 0 42.145-42.227M592.95 709.902a59.661 59.661 0 1 1 59.661 59.66 59.635 59.635 0 0 1-59.661-59.66M397.716 375.458a123.688 123.688 0 1 0 247.377 0 123.688 123.688 0 1 0-247.377 0z" fill="#FFFFFF" /><path d="M521.432 808.421a309.517 309.517 0 0 1-199.977-73.35 208.06 208.06 0 0 1-6.17-50.365A206.39 206.39 0 0 1 521.458 478.53a206.12 206.12 0 0 1 170.927 90.84 149.127 149.127 0 0 0-32.122-3.503 148.4 148.4 0 0 0-148.21 148.21 148.507 148.507 0 0 0 33.145 93.427c-8.138 0.647-16.114 0.916-23.767 0.916z" fill="#FFFFFF" /></svg>