<?xml version="1.0" standalone="no"?><!DOCTYPE svg PUBLIC "-//W3C//DTD SVG 1.1//EN" "http://www.w3.org/Graphics/SVG/1.1/DTD/svg11.dtd"><svg class="icon" width="200px" height="191.22px" viewBox="0 0 1071 1024" version="1.1" xmlns="http://www.w3.org/2000/svg"><path fill="#007aff" d="M752.067607 809.654366C721.719369 832.570059 688.277429 851.616186 653.156128 866.215915 600.068769 888.194014 542.073936 899.895169 480.800816 899.895169 419.059591 899.895169 360.833765 887.967609 308.451629 866.215915 252.555625 843.765114 203.447184 809.853334 162.053333 768.69354 120.426958 726.602119 86.987875 677.020976 64.304554 622.302892L63.366811 620.193349C43.025553 567.811218 31.330517 510.044317 31.330517 449.715059 31.330517 388.679058 43.019437 330.447111 64.771131 277.359752 87.220401 223.106719 121.13218 173.054409 162.51991 131.660559 243.90788 50.278714 356.859441 0 481.271986 0 542.307988 0 600.539935 11.92756 653.627294 33.679255L652.922071 33.679255 652.922071 34.384477C707.41375 56.368696 757.227414 90.27436 798.619738 131.666679L801.189737 134.004158C841.411788 174.931431 873.686722 224.276987 896.137523 278.064975L897.075266 280.633447C918.354268 332.550533 930.275708 389.844737 930.275708 450.18011 930.275708 511.687278 918.348147 570.153281 896.131403 622.535417 878.902878 664.351801 855.340419 703.546683 826.499653 738.332345 827.097 738.875028 827.684051 739.434443 828.260184 740.010571L1024.346214 936.096605C1044.345899 956.096285 1044.343506 988.524567 1024.026697 1008.841382 1003.850547 1029.017532 971.102161 1028.981145 951.28192 1009.160904L755.195886 813.074869C754.092196 811.971175 753.049417 810.829638 752.067607 809.654366ZM455.30885 191.530886 455.541375 190.593139C455.541375 190.593139 453.205427 187.784494 447.360202 186.852871 441.277867 185.913597 430.987152 189.887921 430.987152 189.887921 430.987152 189.887921 367.609082 214.442139 349.366661 271.037245 349.366661 271.037245 338.609369 296.761732 352.874408 371.828721 332.533155 362.243228 346.564137 411.82284 346.564137 411.82284 348.667559 424.91608 354.278733 430.759769 357.552423 433.101837 365.739712 499.755128 423.506612 568.976897 475.888749 568.976897 536.224122 568.976897 593.524446 496.241266 602.404716 433.101837 605.912463 430.76589 611.2957 424.91608 613.399122 411.82284 613.399122 411.82284 626.259837 365.983496 609.186158 370.895567 615.037499 353.124312 638.891088 285.068228 600.77246 242.276173 600.77246 242.276173 590.250751 214.208088 546.986003 201.3489L530.612953 192.696566C522.659716 186.852871 513.074224 190.825664 500.914138 184.98197 500.675497 184.98197 459.055242 178.199001 455.30885 191.530886L455.30885 191.530886ZM479.162444 844.464216C598.191751 844.464216 705.065567 792.781182 778.73282 710.928166 770.086602 679.59098 756.283551 646.616943 735.004554 632.353435 695.952767 606.394892 583.700307 563.131671 583.700307 563.131671L515.411698 705.549523 497.638916 667.198369 514.945121 632.587487 480.334239 597.981194 445.729477 632.587487 463.034155 667.198369 444.791734 706.715202 376.041136 563.359607C376.041136 563.359607 263.788677 606.622828 224.732301 632.581371 205.556726 645.446675 191.758269 681.461876 182.639353 714.668438 256.540658 794.413443 362.010154 844.453511 479.17468 844.453511L479.162444 844.464216Z" /></svg>