<?xml version="1.0" standalone="no"?><!DOCTYPE svg PUBLIC "-//W3C//DTD SVG 1.1//EN" "http://www.w3.org/Graphics/SVG/1.1/DTD/svg11.dtd"><svg class="icon" width="200px" height="200.00px" viewBox="0 0 1024 1024" version="1.1" xmlns="http://www.w3.org/2000/svg"><path fill="#007aff" d="M 861.435 803.177 L 738.346 681.874 c 19.2146 -23.4705 37.1858 -53.659 49.1252 -82.479 c 14.9578 -35.8117 23.4639 -74.782 23.4639 -116.228 c 0 -40.6176 -8.09254 -79.1788 -22.6421 -114.582 l -0.547654 -1.50217 c -15.0971 -36.2313 -37.4643 -69.3054 -64.9101 -97.0247 l -1.2376 -1.37247 c -28.1289 -27.8548 -61.6174 -50.4962 -98.7966 -66.1417 l 0 0.139323 l -0.278643 -0.274197 c -35.5427 -14.8228 -75.1977 -23.1897 -115.814 -23.1897 c -84.113 0 -160.279 34.1762 -215.03 89.3311 c -28.1298 28.1289 -50.6406 61.4819 -66.1477 99.0769 C 210.432 403.579 202.478 442.421 202.478 483.448 c 0 40.6182 7.54337 79.4638 22.0923 114.862 l 0.818145 1.36877 c 15.5063 37.4635 38.0171 70.9505 66.1469 98.8003 c 27.8599 28.1334 61.1979 50.6354 98.3886 66.1409 c 36.2318 14.9623 75.2036 23.0561 116.643 23.0561 c 40.897 0 80.2811 -8.09848 116.092 -23.0561 c 28.269 -11.6631 59.1438 -30.5982 82.6133 -50.3611 l 123.504 121.447 c 11.1043 10.7018 24.008 13.7257 34.9906 3.01395 c 10.9806 -10.8375 8.91888 -24.4229 -2.33142 -35.5382 L 861.435 803.177 Z M 692.781 670.483 l -0.410557 0.409072 c -24.0115 24.2873 -53.3789 43.6353 -85.0762 56.816 c -31.1533 12.8969 -65.1894 19.7629 -101.138 19.7629 c -36.2318 0 -70.397 -6.99426 -101.137 -19.7629 c -32.7993 -13.1697 -61.6063 -33.0727 -85.9043 -57.2251 c -24.4177 -24.6972 -44.0451 -53.7947 -57.3562 -85.9001 l -0.549136 -1.2376 c -11.9342 -30.739 -18.7996 -64.6359 -18.7996 -100.033 c 0 -35.8185 6.85494 -69.9841 19.6229 -101.137 c 13.1764 -31.8358 33.0734 -61.2076 57.3615 -85.4956 c 47.7563 -47.7563 114.034 -77.2577 187.036 -77.2577 c 35.8125 0 69.9893 6.99945 101.137 19.7622 l -0.414261 0 l 0 0.414261 c 31.9754 12.9022 61.2083 32.794 85.4956 57.0813 l 1.50734 1.37692 c 23.5988 24.013 42.5363 52.9654 55.7148 84.5274 l 0.553582 1.51178 c 12.4835 30.4641 19.4777 64.0821 19.4777 99.4903 c 0 36.0925 -7.00463 70.3984 -20.0372 101.133 c -13.1711 31.9754 -32.6585 61.3371 -57.0858 85.7692 L 692.781 670.483 L 692.781 670.483 Z M 410.231 388.494 c 0 52.1221 42.245 94.3603 94.3603 94.3603 c 52.1034 0 94.3594 -42.2371 94.3594 -94.3603 c 0 -52.1135 -42.2551 -94.35 -94.3594 -94.35 C 452.475 294.144 410.231 336.379 410.231 388.494 L 410.231 388.494 Z M 685.614 606.353 c 0 -55.8332 -81.0451 -101.105 -181.028 -101.105 c -99.9675 0 -181.019 45.2718 -181.019 101.105 c 0 11.8313 5.52839 23.1913 12.8976 33.7473 c 25.1698 43.7149 90.9447 74.8987 168.125 74.8987 c 77.1674 0 142.933 -31.1732 168.112 -74.8754 C 680.071 629.561 685.614 618.192 685.614 606.353 Z" /></svg>