<?xml version="1.0" standalone="no"?><!DOCTYPE svg PUBLIC "-//W3C//DTD SVG 1.1//EN" "http://www.w3.org/Graphics/SVG/1.1/DTD/svg11.dtd"><svg class="icon" width="200px" height="200.00px" viewBox="0 0 1024 1024" version="1.1" xmlns="http://www.w3.org/2000/svg"><path fill="#007aff" d="M1001.944 580.344a95.512 95.512 0 0 0-64.256-36.664 92.88 92.88 0 0 0-70 19.416l-227.656 176.48a126.336 126.336 0 0 1-77.928 26.96h-54.8c41.576-40.624 67.576-97.088 67.576-159.68a31.952 31.952 0 0 0-31.944-31.944H191.624v-31.936a31.952 31.952 0 0 0-31.936-31.944H31.936A31.912 31.912 0 0 0 0 542.976v447.12a31.912 31.912 0 0 0 31.936 31.944h127.752a31.952 31.952 0 0 0 31.936-31.936v-31.944H617.04c34.88 0 69.44-11.88 97.544-33.528l270.128-210.088a95.264 95.264 0 0 0 36.664-64.32c3.064-25.36-3.896-50.272-19.424-69.88zM127.76 958.16H63.872V574.912h63.88v383.248z m830.12-315.672a31.8 31.8 0 0 1-12.392 21.6l-270.064 210.08c-16.8 12.96-37.624 20.12-58.384 20.12H191.624V638.784h316.12c-14.816 72.824-79.336 127.76-156.432 127.76a31.992 31.992 0 0 0-31.936 31.928 31.992 31.992 0 0 0 31.936 31.944h210.792c42.6 0 84.32-14.504 117.28-40.56l227.648-176.432c6.448-5.104 14.816-7.216 22.8-6.32 8.56 1.024 16.16 5.36 21.72 12.584 5.104 6.448 7.344 14.56 6.32 22.8zM606.816 319.408c52.824 0 95.808 42.992 95.808 95.816 0 41.584-26.76 76.72-63.872 89.936v37.816a31.952 31.952 0 0 1-31.936 31.936 31.952 31.952 0 0 1-31.936-31.936v-31.944h-31.944a31.952 31.952 0 0 1-31.936-31.936 31.952 31.952 0 0 1 31.936-31.936h63.88a31.952 31.952 0 0 0 31.936-31.936 31.952 31.952 0 0 0-31.936-31.936c-52.824 0-95.816-42.992-95.816-95.816 0-41.584 26.768-76.72 63.88-89.936v-37.816a31.952 31.952 0 0 1 31.936-31.936 31.952 31.952 0 0 1 31.936 31.936v31.936h31.936a31.952 31.952 0 0 1 31.936 31.944 31.952 31.952 0 0 1-31.936 31.936h-63.872a31.952 31.952 0 0 0-31.936 31.936 31.952 31.952 0 0 0 31.936 31.936z m0-319.376c193.736 0 351.312 157.584 351.312 351.312a355.168 355.168 0 0 1-28.744 140.272 31.952 31.952 0 0 1-41.904 16.864 31.896 31.896 0 0 1-16.864-41.904 292.456 292.456 0 0 0 23.64-115.232c0-158.472-128.96-287.44-287.44-287.44s-287.44 128.968-287.44 287.44c0 39.736 7.984 78.504 23.632 115.232a31.896 31.896 0 0 1-16.864 41.904 31.96 31.96 0 0 1-41.896-16.864 355.168 355.168 0 0 1-28.744-140.272C255.504 157.616 413.08 0.032 606.816 0.032z"  /></svg>