<?xml version="1.0" standalone="no"?><!DOCTYPE svg PUBLIC "-//W3C//DTD SVG 1.1//EN" "http://www.w3.org/Graphics/SVG/1.1/DTD/svg11.dtd"><svg class="icon" width="200px" height="200.00px" viewBox="0 0 1024 1024" version="1.1" xmlns="http://www.w3.org/2000/svg"><path fill="#ffffff" d="M458.881751 78.995486A214.296266 214.296266 0 1 1 244.585485 294.13213a214.50636 214.50636 0 0 1 214.296266-214.296266m0-63.028314A277.324579 277.324579 0 1 0 736.20633 294.13213 277.324579 277.324579 0 0 0 458.881751 15.967173z"  /><path fill="#ffffff" d="M31.549785 1024a31.514157 31.514157 0 0 1-31.514156-31.514157 460.106689 460.106689 0 0 1 459.686499-459.476405 454.854329 454.854329 0 0 1 208.413624 50.002462 31.514157 31.514157 0 0 1-28.572836 56.095199 392.246204 392.246204 0 0 0-179.840788-42.018876A397.078375 397.078375 0 0 0 63.063942 992.485843a31.514157 31.514157 0 0 1-31.514157 31.514157zM840.623236 978.619614a168.075503 168.075503 0 1 1 168.075503-168.075502 168.075503 168.075503 0 0 1-168.075503 168.075502z m0-281.946655a114.711531 114.711531 0 1 0 114.711531 114.71153 114.921625 114.921625 0 0 0-114.711531-114.71153z"  /><path fill="#ffffff" d="M623.385649 1024a31.514157 31.514157 0 0 1-21.009438-54.624538l90.550677-84.037752a31.514157 31.514157 0 0 1 42.018876 46.430858l-90.550677 84.037751a31.514157 31.514157 0 0 1-21.009438 8.193681z"  /></svg>