<?xml version="1.0" standalone="no"?><!DOCTYPE svg PUBLIC "-//W3C//DTD SVG 1.1//EN" "http://www.w3.org/Graphics/SVG/1.1/DTD/svg11.dtd"><svg t="1638980444538" class="icon" viewBox="0 0 1024 1024" version="1.1" xmlns="http://www.w3.org/2000/svg" p-id="3009" xmlns:xlink="http://www.w3.org/1999/xlink" width="200" height="200"><defs><style type="text/css"></style></defs><path d="M779.64 369.51h-620c-48.96 0-88.8-39.83-88.8-88.8V152.77c0-48.94 39.83-88.77 88.8-88.77h620c48.92 0 88.75 39.83 88.75 88.77V280.7c0 48.97-39.83 88.81-88.75 88.81z m-620-246.02c-16.15 0-29.31 13.14-29.31 29.29v127.93c0 16.17 13.17 29.31 29.31 29.31h620c16.15 0 29.26-13.14 29.26-29.31V152.77c0-16.15-13.12-29.29-29.26-29.29h-620z" p-id="3010"></path><path d="M518.82 661.13c-16.29 0-29.5-13.21-29.5-29.53V499.36c0-16.31 13.21-29.53 29.5-29.53h355.43c10.96 0 19.89-8.91 19.89-19.89V261.78c0-10.86-8.84-19.68-19.7-19.68h-32.1c-16.29 0-29.5-13.21-29.5-29.53s13.21-29.53 29.5-29.53h32.1c43.39 0 78.71 35.32 78.71 78.73v188.17c0 43.53-35.37 78.95-78.9 78.95H548.33V631.6c0 16.31-13.22 29.53-29.51 29.53z" p-id="3011"></path><path d="M540.97 960h-44.25c-38.15 0-69.19-31.02-69.19-69.17V674.34c0-38.13 31.04-69.14 69.19-69.14h44.25c38.15 0 69.14 31.02 69.14 69.14v216.49c0.01 38.15-30.98 69.17-69.14 69.17z m-44.25-295.22c-5.29 0-9.61 4.3-9.61 9.56v216.49c0 5.29 4.32 9.59 9.61 9.59h44.25c5.29 0 9.56-4.3 9.56-9.59V674.34c0-5.26-4.28-9.56-9.56-9.56h-44.25z" p-id="3012"></path></svg>