<?xml version="1.0" standalone="no"?><!DOCTYPE svg PUBLIC "-//W3C//DTD SVG 1.1//EN" "http://www.w3.org/Graphics/SVG/1.1/DTD/svg11.dtd"><svg class="icon" width="200px" height="196.92px" viewBox="0 0 1040 1024" version="1.1" xmlns="http://www.w3.org/2000/svg"><path fill="#2c2c2c" d="M298.6765 692.451556c-58.53054 0-106.138413 47.900444-106.138412 106.772317 0 58.88 47.607873 106.780444 106.138412 106.780444 58.53054 0 106.138413-47.900444 106.138413-106.780444 0-58.871873-47.616-106.772317-106.138413-106.772317z m0 176.623746c-38.286222 0-69.436952-31.329524-69.436952-69.851429 0-38.513778 31.15073-69.843302 69.436952-69.843302s69.436952 31.329524 69.436953 69.843302c0 38.521905-31.15073 69.851429-69.436953 69.851429z"  /><path fill="#2c2c2c" d="M991.57504 752.323048V724.926984c0-75.028317-50.427937-140.466794-122.63619-159.142603L483.280945 465.871238a177.217016 177.217016 0 0 1 95.979682-46.24254c0.121905 0 0.235683-0.032508 0.349461-0.040635a180.971683 180.971683 0 0 1 25.616254-1.820444c63.528635 0 122.912508 34.344635 154.965333 89.624381a18.318222 18.318222 0 0 0 15.863873 9.167238c3.137016 0 6.322794-0.812698 9.224127-2.519365a18.521397 18.521397 0 0 0 6.607238-25.25054A217.144889 217.144889 0 0 0 691.169199 398.953651v-51.208127a18.407619 18.407619 0 0 0-18.35073-18.464508h-95.410794a18.407619 18.407619 0 0 0-18.35073 18.464508v38.07492c-45.039746 9.801143-85.780317 33.865143-116.622222 69.485715L341.058723 429.023492 283.145834 219.29854a18.334476 18.334476 0 0 0-22.593016-12.840635A18.480762 18.480762 0 0 0 247.793453 229.180952l52.240254 189.228699-70.704762-18.318222-77.409524-280.364699a18.448254 18.448254 0 0 0-8.647111-11.133968 18.26946 18.26946 0 0 0-13.945905-1.706667l-52.524698 14.685461a31.223873 31.223873 0 0 1-24.015238-2.958223 31.613968 31.613968 0 0 1-14.913016-19.21219c-4.664889-16.887873 5.20127-34.458413 21.999746-39.15581l73.061587-20.414984a59.603302 59.603302 0 0 1 45.819937 5.632 60.107175 60.107175 0 0 1 28.403809 36.555175l24.600381 89.079873a18.342603 18.342603 0 0 0 22.593016 12.848762 18.480762 18.480762 0 0 0 12.767492-22.731175L242.510913 72.143238a96.776127 96.776127 0 0 0-45.706159-58.823111A95.865905 95.865905 0 0 0 123.109262 4.25854l-73.061587 20.414984C13.73631 34.824127-7.588897 72.78527 2.496691 109.275429A68.266667 68.266667 0 0 0 34.703929 150.755556a67.494603 67.494603 0 0 0 51.915174 6.395936l34.840381-9.744254L190.335675 396.840635H64.546215c-5.867683 0-11.394032 2.82819-14.839873 7.606857a18.537651 18.537651 0 0 0-2.608762 16.562794L106.1645 603.834921a18.366984 18.366984 0 0 0 17.448635 12.759365h46.055619c-56.726349 40.659302-93.793524 107.373714-93.793524 182.629587 0 123.587048 99.945651 224.134095 222.80127 224.134095 73.508571 0 138.808889-36.00254 179.411302-91.396063h259.795301c25.177397 53.938794 79.676952 91.396063 142.734223 91.396063 86.909968 0 157.61473-71.127365 157.61473-158.55746a158.55746 158.55746 0 0 0-46.648889-112.47746zM595.766532 366.201905h58.701206v20.423111a213.170794 213.170794 0 0 0-58.701206-5.542603v-14.880508zM136.941389 579.673397l-47.136508-145.911873h106.317207v145.911873H136.941389z m588.96254 315.367619H500.063167a223.882159 223.882159 0 0 0 21.414603-95.817143c0-25.973841-4.380444-51.44381-13.027555-75.686603a18.334476 18.334476 0 0 0-23.470731-11.142095 18.488889 18.488889 0 0 0-11.077079 23.608888 187.684571 187.684571 0 0 1 10.873905 63.227937c0 103.228952-83.480381 187.205079-186.107937 187.205079-102.611302 0-186.09981-83.976127-186.099809-187.205079s83.488508-187.205079 186.107936-187.205079c56.661333 0 109.551746 25.502476 145.107302 69.98146a18.285714 18.285714 0 0 0 25.803175 2.820063 18.529524 18.529524 0 0 0 2.803809-25.94946c-42.561016-53.231746-105.870222-83.772952-173.714286-83.772952-22.918095 0-45.031619 3.50273-65.852952 9.99619V439.125333l626.972444 162.417778c55.978667 14.474159 95.085714 65.210921 95.085715 123.375746l0.10565 0.146286a155.899937 155.899937 0 0 0-74.378158-18.813968c-86.909968 0-157.61473 71.127365-157.61473 158.55746 0 10.337524 1.024 20.439365 2.90946 30.232381z m154.70527 91.396063c-66.673778 0-120.91327-54.564571-120.91327-121.636571s54.247619-121.628444 120.91327-121.628445c66.673778 0 120.91327 54.564571 120.91327 121.628445 0 67.072-54.239492 121.636571-120.91327 121.636571z"  /><path fill="#2c2c2c" d="M880.609199 797.801651c-36.725841 0-66.600635 30.053587-66.600635 66.998857 0 36.94527 29.874794 66.998857 66.600635 66.998857 36.733968 0 66.608762-30.053587 66.608762-66.998857 0-36.94527-29.874794-66.998857-66.608762-66.998857z m0 97.076825c-16.489651 0-29.907302-13.490794-29.907302-30.069841 0-16.595302 13.417651-30.086095 29.907302-30.086095 16.497778 0 29.907302 13.490794 29.907301 30.077968 0 16.587175-13.409524 30.077968-29.907301 30.077968zM746.05885 652.791873H655.694913a18.407619 18.407619 0 0 0-18.35073 18.464508 18.407619 18.407619 0 0 0 18.35073 18.464508h90.372064a18.407619 18.407619 0 0 0 18.342603-18.464508 18.407619 18.407619 0 0 0-18.35073-18.464508zM598.1965 652.791873h-24.787301a18.407619 18.407619 0 0 0-18.35073 18.464508 18.407619 18.407619 0 0 0 18.35073 18.464508h24.787301a18.407619 18.407619 0 0 0 18.35073-18.464508 18.407619 18.407619 0 0 0-18.35073-18.464508zM686.991929 718.181587H573.409199a18.407619 18.407619 0 0 0-18.35073 18.464508 18.407619 18.407619 0 0 0 18.35073 18.456381h113.58273a18.407619 18.407619 0 0 0 18.35073-18.456381 18.407619 18.407619 0 0 0-18.35073-18.464508z"  /></svg>