<?xml version="1.0" standalone="no"?><!DOCTYPE svg PUBLIC "-//W3C//DTD SVG 1.1//EN" "http://www.w3.org/Graphics/SVG/1.1/DTD/svg11.dtd"><svg class="icon" width="200px" height="200.00px" viewBox="0 0 1024 1024" version="1.1" xmlns="http://www.w3.org/2000/svg"><path fill="#007aff" d="M485.824 703.963c0-59.328 22.687-113.429 59.328-153.566 13.959-33.161 40.137-71.545 41.882-115.173 13.959 1.743 29.665-10.473 36.647-33.161 6.983-22.687 13.959-61.082 0-64.569-3.489-1.743-8.723 0-12.215 1.743v-62.825c-17.447-76.786-50.604-125.647-108.193-165.785-41.882-22.687-87.252-17.447-87.252-17.447-48.862 0-62.825 10.473-68.059 13.959-94.235 40.137-99.474 95.977-125.647 167.525v62.825H210.1c-13.959 3.489-8.723 40.137-3.489 62.825 5.23 22.687 26.176 36.647 40.137 34.906 1.743 62.825 61.082 106.448 57.587 148.33C176.94 628.919 86.202 744.098 86.202 878.468h483.39c-52.353-41.882-83.762-104.706-83.762-174.51z m357.741 85.506c15.709-24.434 26.176-54.099 26.176-85.515 0-87.252-69.799-157.055-157.055-157.055s-157.055 69.799-157.055 157.055c0 87.252 69.799 157.055 157.055 157.055 36.647 0 69.799-12.215 95.977-33.161l83.762 83.762 36.647-36.647-85.515-85.515z m-130.882 19.199c-57.587 0-104.706-47.124-104.706-104.706s47.124-104.706 104.706-104.706 104.706 47.124 104.706 104.706c0 57.587-47.124 104.706-104.706 104.706z"  /></svg>