<?xml version="1.0" standalone="no"?><!DOCTYPE svg PUBLIC "-//W3C//DTD SVG 1.1//EN" "http://www.w3.org/Graphics/SVG/1.1/DTD/svg11.dtd"><svg class="icon" width="200px" height="166.10px" viewBox="0 0 1233 1024" version="1.1" xmlns="http://www.w3.org/2000/svg"><path fill="#007aff" d="M1203.010246 349.574789L873.506181 29.451779a104.832193 104.832193 0 0 0-145.549497-0.132127l-111.372506 108.28953-111.207346-108.157403a105.349692 105.349692 0 0 0-145.670614 0L30.290239 349.442661a98.313901 98.313901 0 0 0 0 141.949021l179.869625 183.040686 329.371937 320.12301A103.984374 103.984374 0 0 0 612.499235 1023.997798c1.40936 0 2.565476-0.770744 3.985848-0.770744s2.565476 0.770744 3.985847 0.770744a104.116502 104.116502 0 0 0 73.220679-29.44242L1022.898387 674.520453a98.424007 98.424007 0 0 0 16.82424-24.443595l163.276608-158.718208a98.379965 98.379965 0 0 0 0-141.827904zM979.615606 608.897108l-53.181335 51.199422-72.835306-71.040574a37.094807 37.094807 0 0 0-51.386603 0 34.727522 34.727522 0 0 0 0 49.922189l72.835307 71.040574-45.72714 45.143576-72.835307-71.040574a37.094807 37.094807 0 0 0-51.386602 0 34.727522 34.727522 0 0 0 0 49.922189l72.967434 71.040575-47.268628 45.947352-72.835306-71.040575a37.094807 37.094807 0 0 0-51.386603 0 34.727522 34.727522 0 0 0 0 49.92219l72.835307 71.040574-45.220651 44.042513a29.838803 29.838803 0 0 1-17.34174 7.938663 30.609547 30.609547 0 0 1-17.617005-7.938663L81.665831 441.469493a29.001995 29.001995 0 0 1-8.995684-21.118385 29.519495 29.519495 0 0 1 8.863556-20.997268L411.037768 79.23083a31.424333 31.424333 0 0 1 43.293791 0l110.866017 108.410647s-91.597417 93.182948-123.319038 125.818451c-24.917052 25.599711 4.624464 58.114097 4.624464 58.114096a163.441768 163.441768 0 0 0 226.730859 0l40.596187-39.418049 257.945991 250.359668a29.25524 29.25524 0 0 1 8.863556 21.118385 31.314227 31.314227 0 0 1-1.023989 5.25207z m171.952984-167.295487L1036.727736 552.963116a95.054755 95.054755 0 0 0-14.005519-20.347641L763.410908 280.339957a34.221033 34.221033 0 0 0-7.960685-38.405071 37.094807 37.094807 0 0 0-51.386602 0L622.100503 321.805984a91.454279 91.454279 0 0 1-106.109425 13.443977L733.087637 124.308343l45.606023-44.284748a31.303216 31.303216 0 0 1 43.161663 0l329.217789 319.990882a29.013006 29.013006 0 0 1 8.863555 20.997269 27.218273 27.218273 0 0 1-8.346056 20.611896z"  /></svg>