<?xml version="1.0" standalone="no"?><!DOCTYPE svg PUBLIC "-//W3C//DTD SVG 1.1//EN" "http://www.w3.org/Graphics/SVG/1.1/DTD/svg11.dtd"><svg class="icon" width="200px" height="199.80px" viewBox="0 0 1025 1024" version="1.1" xmlns="http://www.w3.org/2000/svg"><path fill="#007aff" d="M937.472 428.544h-19.456V342.016c0-40.448-33.28-73.728-73.728-73.728h-85.504v-18.944c0-47.616-38.912-86.528-86.528-86.528-47.616 0-86.528 38.912-86.528 86.528v19.456H499.712c-27.136 0-50.688 14.848-63.488 36.352-9.728-10.24-23.552-16.384-38.4-16.384H291.84v-39.424c0-36.352-29.696-66.048-66.048-66.048s-66.048 29.696-66.048 66.048v39.936H53.248C24.064 289.792 0 313.344 0 343.04v100.352h39.936c39.424 0 71.68 32.256 71.68 71.68s-32.256 71.68-71.68 71.68H0v100.864c0 29.184 24.064 53.248 53.248 53.248h100.864v-39.936c0-39.424 32.256-71.68 71.68-71.68s71.68 32.256 71.68 71.68v39.936h100.864c14.848 0 28.672-6.144 38.4-15.872 12.8 22.016 36.352 36.352 63.488 36.352h100.864c11.264 0 20.48-9.216 20.48-20.48v-39.936c0-28.16 23.04-51.2 51.2-51.2s51.2 23.04 51.2 51.2v39.936c0 11.264 9.216 20.48 20.48 20.48h100.864c40.448 0 73.728-32.768 73.728-73.216v-85.504h19.456c47.616 0 86.528-38.912 86.528-86.528-1.024-48.64-39.936-87.552-87.552-87.552z m0 132.096h-39.936c-11.264 0-20.48 9.216-20.48 20.48v105.984c0 17.92-14.848 32.256-32.768 32.256h-80.384v-19.456c0-50.688-41.472-92.16-92.16-92.16s-92.16 41.472-92.16 92.16v19.456H499.712c-17.92 0-32.768-14.848-32.768-32.768v-80.384H486.4c50.688 0 92.16-41.472 92.16-92.16s-41.472-92.16-92.16-92.16h-19.456V343.04c0-17.92 14.848-32.768 32.768-32.768h105.984c11.264 0 20.48-9.216 20.48-20.48v-39.936c0-25.088 20.48-45.568 45.568-45.568s45.568 20.48 45.568 45.568v39.424c0 11.264 9.216 20.48 20.48 20.48h105.984c17.92 0 32.768 14.848 32.768 32.768v106.496c0 11.264 9.216 20.48 20.48 20.48h39.936c25.088 0 45.568 20.48 45.568 45.568s-19.968 45.568-45.056 45.568z" /></svg>