<?xml version="1.0" standalone="no"?><!DOCTYPE svg PUBLIC "-//W3C//DTD SVG 1.1//EN" "http://www.w3.org/Graphics/SVG/1.1/DTD/svg11.dtd"><svg t="1639221339528" class="icon" viewBox="0 0 1024 1024" version="1.1" xmlns="http://www.w3.org/2000/svg" p-id="83587" xmlns:xlink="http://www.w3.org/1999/xlink" width="200" height="200"><defs><style type="text/css"></style></defs><path d="M193.93 749.66H86.32a21 21 0 0 1-20.94-20.94V352a21 21 0 0 1 20.94-21h371.52a20.94 20.94 0 0 1 20.93 21v107.59a20.93 20.93 0 0 1-41.86 0V372.9H107.25v334.89h86.68a20.94 20.94 0 1 1 0 41.87zM457.84 749.66H355.46a20.94 20.94 0 1 1 0-41.87h81.45v-86.68a20.93 20.93 0 1 1 41.86 0v107.61a20.94 20.94 0 0 1-20.93 20.94zM834.6 480.52a20.94 20.94 0 0 1-20.93-20.93V372.9H727a20.94 20.94 0 0 1 0-41.9h107.6a20.94 20.94 0 0 1 20.93 21v107.59a20.94 20.94 0 0 1-20.93 20.93z" fill="#ffffff" p-id="83588"></path><path d="M834.6 749.66H463.07a20.94 20.94 0 0 1-20.93-20.94V622.49A21 21 0 0 1 467 601.92a62.19 62.19 0 0 0 11.77 1.22 62.8 62.8 0 1 0 0-125.59 62.19 62.19 0 0 0-11.77 1.22 21 21 0 0 1-24.86-20.56V352a20.94 20.94 0 0 1 20.93-21h102.39a20.94 20.94 0 0 1 0 41.87H484v62.92a104.66 104.66 0 0 1 0 209.05v62.92h329.67v-86.65a20.93 20.93 0 1 1 41.86 0v107.61a20.94 20.94 0 0 1-20.93 20.94zM274.7 854.31A104.78 104.78 0 0 1 170 749.66a103.36 103.36 0 0 1 3.64-26.2A20.93 20.93 0 1 1 214.19 734a61.85 61.85 0 0 0-2.29 15.67 62.8 62.8 0 0 0 125.59 0A61.85 61.85 0 0 0 335.2 734a20.93 20.93 0 0 1 40.51-10.53 103.36 103.36 0 0 1 3.64 26.2A104.77 104.77 0 0 1 274.7 854.31z" fill="#ffffff" p-id="83589"></path><path d="M727 372.9a21 21 0 0 1-20.27-26.2A61.41 61.41 0 0 0 709 331a62.79 62.79 0 1 0-125.58 0 61.41 61.41 0 0 0 2.29 15.67 20.93 20.93 0 0 1-40.52 10.53 103.32 103.32 0 0 1-3.63-26.2 104.66 104.66 0 0 1 209.31 0 103.36 103.36 0 0 1-3.64 26.2A20.94 20.94 0 0 1 727 372.9zM855.53 645a103.29 103.29 0 0 1-26.19-3.64 20.93 20.93 0 1 1 10.52-40.51 61.91 61.91 0 0 0 15.67 2.29 62.8 62.8 0 0 0 0-125.59 61.91 61.91 0 0 0-15.67 2.29 20.93 20.93 0 1 1-10.52-40.51 103.29 103.29 0 0 1 26.19-3.64 104.66 104.66 0 1 1 0 209.31zM478.77 645a104.3 104.3 0 0 1-19.62-2 20.94 20.94 0 0 1 7.85-41.08 62.19 62.19 0 0 0 11.77 1.22 62.8 62.8 0 1 0 0-125.59 62.19 62.19 0 0 0-11.77 1.22 20.94 20.94 0 1 1-7.85-41.13A104.61 104.61 0 1 1 478.77 645z" fill="#ffffff" p-id="83590"></path></svg>