<?xml version="1.0" standalone="no"?><!DOCTYPE svg PUBLIC "-//W3C//DTD SVG 1.1//EN" "http://www.w3.org/Graphics/SVG/1.1/DTD/svg11.dtd"><svg class="icon" width="200px" height="200.00px" viewBox="0 0 1024 1024" version="1.1" xmlns="http://www.w3.org/2000/svg"><path fill="#007aff" d="M444.2 433.1c-3.3 3.3-3.1 8.8 0.5 11.8 38.9 32.7 96.8 31.1 133.8-4.7l1.2-1.2 42.4-42.4c3.1-3.1 8.2-3.1 11.3 0l174.7 174.7c12.5 12.5 12.5 32.8 0 45.3l-17.7 17.7c-12.5 12.5-32.8 12.5-45.3 0L645 534c-6.1-6.1-15.9-6.6-22.3-0.9-6.8 6.1-7.1 16.5-0.9 23l0.2 0.2 100.4 100.4c12.5 12.5 12.5 32.8 0 45.3l-17 17c-12.5 12.5-32.8 12.5-45.3 0l-99.9-100.1c-6.1-6.1-15.9-6.6-22.3-0.9-6.8 6.1-7.1 16.5-0.9 23l0.2 0.2 100.4 100.4c12.5 12.5 12.5 32.8 0 45.3l-17 17c-12.5 12.5-32.8 12.5-45.3 0l-100-100.1c-6.1-6.1-15.9-6.6-22.3-0.9-6.8 6.1-7.1 16.5-0.9 23l0.2 0.2 100.4 100.4c12.5 12.5 12.5 32.8 0 45.3l-18.4 18.4c-12.5 12.5-32.8 12.5-45.3 0L52.9 453.8c-12.5-12.5-12.5-32.8 0-45.3l273.7-273.7c12.5-12.5 32.8-12.5 45.3 0l140 140 141.4-141.4c12.5-12.5 32.8-12.5 45.3 0l273.7 273.7c12.5 12.5 12.5 32.8 0 45.3l-102 101.8c-6.2 6.2-16.4 6.2-22.6 0L825 531.6c-6.2-6.2-6.2-16.4 0-22.6l79.2-79.2-228.4-228.4L557 320.2 444.2 433.1z" /></svg>